# xmcd
#
# Track frame offsets:
#	150
#	15458
#	29886
#	46914
#	65401
#	85544
#	100244
#	112676
#	125919
#	136997
#	151159
#	172854
#	187531
#	205801
#
# Disc length: 2892 seconds
#
# Revision: 1
# Processed by: cddbd v1.5.2PL0 Copyright (c) Steve Scherf et al.
# Submitted via: EasyCDDAExtractor 10.5.1.1
#
DISCID=a70b4a0e
DTITLE=LUKI and KAIO
DYEAR=2007
DGENRE=Country
TTITLE0=Píngao
TTITLE1=Alegria da um show
TTITLE2=Festa no barretao
TTITLE3=Nao vejo saida
TTITLE4=Meu destino e te amar
TTITLE5=Trem cosquento
TTITLE6=Arrochando o no
TTITLE7=Passaro bobo
TTITLE8=Queridinho das meninas
TTITLE9=Hoje para mim tanto faz
TTITLE10=Amor quebrado
TTITLE11=Rebolado dela
TTITLE12=Entao prque dizer adeus
TTITLE13=Simplesmente um cantador
EXTD=
EXTT0=
EXTT1=
EXTT2=
EXTT3=
EXTT4=
EXTT5=
EXTT6=
EXTT7=
EXTT8=
EXTT9=
EXTT10=
EXTT11=
EXTT12=
EXTT13=
PLAYORDER=
